# xmcd
#
# Track frame offsets: 
#        150
#        22762
#        43497
#        72435
#        91752
#        103257
#        119392
#        141687
#        152025
#        168905
#        188497
#        207835
#
# Disc length: 2911 seconds
#
# Revision: 4
# Processed by: cddbd v1.5.2PL0 Copyright (c) Steve Scherf et al.
# Submitted via: ExactAudioCopy v1.0b3
#
DISCID=a60b5d0c
DTITLE=Sweetman with His South Side Groove Kings - Austin Backalley Bl
DTITLE=ue
DYEAR=1995
DGENRE=Blues
TTITLE0=Jest Smoochin'
TTITLE1=Angela's Strut
TTITLE2=Backalley Blue
TTITLE3=Zipperlips
TTITLE4=Lookin' Good
TTITLE5=Night Train
TTITLE6=Housewarming
TTITLE7=Grandma
TTITLE8=Strollin' the Drag
TTITLE9=Crazy House
TTITLE10=Harlem Nocturne
TTITLE11=Tyrone's Night Out
EXTD=YEAR: 1992
EXTT0=
EXTT1=
EXTT2=
EXTT3=
EXTT4=
EXTT5=
EXTT6=
EXTT7=
EXTT8=
EXTT9=
EXTT10=
EXTT11=
PLAYORDER=
